<svg xmlns="http://www.w3.org/2000/svg" viewBox="385 190 260 600">
<path d="M0 0 C0.99 0 1.98 0 3 0 C3.99 2.97 3.99 2.97 5 6 C5.66 6 6.32 6 7 6 C8.67151705 8.28180116 10.22462437 10.56053602 11.75 12.9375 C12.6585945 14.33350237 13.56744724 15.7293367 14.4765625 17.125 C15.13253418 18.13820313 15.13253418 18.13820313 15.80175781 19.171875 C17.19400398 21.29598651 18.65890236 23.36390334 20.125 25.4375 C24.42365897 31.92171311 27.69322661 38.97698409 31 46 C31.51530273 47.07121094 31.51530273 47.07121094 32.04101562 48.1640625 C47.86083068 81.41248737 51.17028245 121.37933629 38.97045898 156.34228516 C34.13908014 169.44268287 28.42137889 181.82253347 20 193 C18.80306523 194.80628338 17.61630963 196.61933599 16.4375 198.4375 C12.82071602 203.88725605 9.00459391 209.17207761 5.125 214.4375 C4.51889893 215.26088867 3.91279785 216.08427734 3.28833008 216.93261719 C0.63385756 220.51845233 -2.03395318 224.08092219 -4.84375 227.546875 C-13.3833001 238.09696196 -19.91825507 249.35536476 -22.33203125 262.83984375 C-22.55246094 263.55269531 -22.77289062 264.26554687 -23 265 C-23.99 265.33 -24.98 265.66 -26 266 C-39.99888386 234.22725237 -40.93372834 203.39306225 -32 170 C-47.46530241 193.82058267 -56.43252039 219.88842776 -50.46337891 248.53198242 C-48.37126424 257.67027022 -45.858848 266.43703253 -42 275 C-41.46826172 276.24330078 -41.46826172 276.24330078 -40.92578125 277.51171875 C-30.75845673 299.66578375 -12.5655641 314.6100627 9.26953125 324.4296875 C12.15846005 326.09113153 12.99603304 326.88402936 14 330 C14.566292 333.80224628 14.41200115 335.40190838 12.21411133 338.5925293 C8.10237284 342.45708688 2.49248871 342.17943207 -2.86328125 342.58203125 C-4.58396065 342.73788948 -4.58396065 342.73788948 -6.33940125 342.89689636 C-9.99561365 343.22320354 -13.6535843 343.51822046 -17.3125 343.8125 C-19.79510189 344.02854025 -22.27752759 344.2466155 -24.75976562 344.46679688 C-30.83799851 345.00147532 -36.91797074 345.51050499 -43 346 C-40.20936124 346.75479035 -37.51144865 347.22701479 -34.63720703 347.52490234 C-33.781763 347.6152475 -32.92631897 347.70559265 -32.04495239 347.79867554 C-31.12519623 347.89347198 -30.20544006 347.98826843 -29.2578125 348.0859375 C-27.2838257 348.29660847 -25.30986832 348.50755518 -23.3359375 348.71875 C-20.24510754 349.04646185 -17.15409706 349.37198452 -14.0625 349.69238281 C18.51274253 353.08213904 18.51274253 353.08213904 25 359 C30.85446014 367.61366189 31 379.00483573 31 389 C-48.2 389 -127.4 389 -209 389 C-209 366.3125 -209 366.3125 -202 358 C-201.3963562 357.23224243 -201.3963562 357.23224243 -200.78051758 356.44897461 C-192.84562658 349.99160754 -174.70872069 350.88356973 -164.8125 349.9375 C-161.52682629 349.61834965 -158.24167935 349.29438337 -154.95703125 348.96484375 C-154.1788504 348.88688568 -153.40066956 348.80892761 -152.59890747 348.72860718 C-146.35156224 348.08169791 -140.17372196 347.16136284 -134 346 C-134.87845581 345.93268677 -134.87845581 345.93268677 -135.7746582 345.86401367 C-148.09227631 344.90807984 -160.39799794 343.83134738 -172.6875 342.5625 C-173.83839111 342.45252686 -174.98928223 342.34255371 -176.17504883 342.22924805 C-177.79576294 342.05582886 -177.79576294 342.05582886 -179.44921875 341.87890625 C-180.87754028 341.73304077 -180.87754028 341.73304077 -182.3347168 341.58422852 C-185.41301038 340.90946837 -187.45027964 339.83935602 -190 338 C-191.5 335.1875 -191.5 335.1875 -192 332 C-190.29873653 326.68355165 -187.64581217 324.83519225 -183 322 C-181.16515564 321.07980615 -179.31071473 320.21847836 -177.4440918 319.36474609 C-155.23876647 309.10366499 -140.75006358 289.850993 -132.36425781 267.24414062 C-129.16356448 258.23880006 -126.57135107 249.07607735 -124 239.875 C-116.58193573 213.37353909 -105.42620183 190.93229865 -89.22949219 168.71289062 C-88.35452755 167.49391685 -87.49761154 166.26190064 -86.65332031 165.02148438 C-85.48245763 163.3145124 -84.24599083 161.6529306 -83 160 C-82.34 160 -81.68 160 -81 160 C-80.73010254 159.40791748 -80.46020508 158.81583496 -80.18212891 158.20581055 C-79.00556679 156.01038743 -77.79854818 154.50278616 -76.0859375 152.70703125 C-75.49780273 152.08538086 -74.90966797 151.46373047 -74.30371094 150.82324219 C-73.66723633 150.15969727 -73.03076172 149.49615234 -72.375 148.8125 C-71.71274414 148.11415039 -71.05048828 147.41580078 -70.36816406 146.69628906 C-68.9636811 145.2152819 -67.55738343 143.73599387 -66.14941406 142.25830078 C-62.66921532 138.60179938 -59.20958676 134.92599266 -55.75 131.25 C-55.080896 130.53956543 -54.41179199 129.82913086 -53.72241211 129.09716797 C-41.63313694 116.2539221 -41.63313694 116.2539221 -30 103 C-29.38898438 102.27941406 -28.77796875 101.55882812 -28.1484375 100.81640625 C-15.51550556 85.49079758 -4.84146287 68.41681426 0 49 C0.33644531 47.77410156 0.33644531 47.77410156 0.6796875 46.5234375 C4.13364184 31.61938794 2.39924284 14.95242412 0 0 Z M-31 167 C-30 169 -30 169 -30 169 Z " fill="#FCCA45" transform="translate(601,394)"/>
<path d="M0 0 C0.92941406 -0.01289063 1.85882812 -0.02578125 2.81640625 -0.0390625 C5.4375 0.625 5.4375 0.625 7.76171875 2.61328125 C10.02630564 6.68320313 9.8865651 9.87048721 9.6875 14.4375 C9.66945313 15.22576172 9.65140625 16.01402344 9.6328125 16.82617188 C9.58594048 18.75964261 9.5142041 20.69248285 9.4375 22.625 C11.64562607 22.79439049 13.85401224 22.96039222 16.0625 23.125 C17.90714844 23.26421875 17.90714844 23.26421875 19.7890625 23.40625 C23.37462578 23.67369038 23.37462578 23.67369038 26.71875 23.5390625 C29.4375 23.625 29.4375 23.625 32.3125 25.5 C34.90724894 29.31580727 34.99696075 31.71502974 35.00390625 36.22265625 C34.23066871 39.50224997 33.14942823 40.63507863 30.4375 42.625 C27.08984375 43.41796875 27.08984375 43.41796875 23.375 43.8125 C18.3270878 44.35777216 18.3270878 44.35777216 13.4375 45.625 C7.86501027 58.85558966 14.02635612 78.87098543 18.91943359 91.43041992 C24.79375433 105.6899808 32.55869955 119.12436165 40.21484375 132.484375 C55.1042452 158.55490601 66.24353393 187.02586427 58.6875 217.25 C54.48148688 231.79078822 47.88566908 244.54564989 38.3082428 256.31455994 C37.07951273 257.83208933 35.86603352 259.36212009 34.66966248 260.9052887 C29.89836299 267.02660357 24.7632377 272.53843181 19.22265625 277.96484375 C18.3674791 278.81244766 17.51230194 279.66005157 16.63121033 280.53334045 C13.0173823 284.11485929 9.391648 287.68423269 5.7668457 291.25463867 C-8.0753792 304.82873168 -8.0753792 304.82873168 -20.5625 319.625 C-21.59512384 320.87124858 -22.63367096 322.11262715 -23.6796875 323.34765625 C-51.88427147 357.27187676 -60.95737081 393.89546872 -60.46655273 437.1340332 C-60.43651204 439.965664 -60.41864977 442.79716798 -60.40234375 445.62890625 C-60.38888412 446.50277481 -60.3754245 447.37664337 -60.36155701 448.2769928 C-60.35267371 450.39403642 -60.44826305 452.51102211 -60.5625 454.625 C-61.2225 455.285 -61.8825 455.945 -62.5625 456.625 C-63.15675781 455.57183594 -63.75101562 454.51867187 -64.36328125 453.43359375 C-72.33971328 439.4776905 -81.54745448 427.01225424 -91.72363281 414.59863281 C-120.76960108 379.0444393 -138.67806335 340.35845027 -135.5625 293.625 C-131.01515447 249.0843335 -110.62781957 203.63504198 -81.5625 169.625 C-80.9025 169.625 -80.2425 169.625 -79.5625 169.625 C-79.75585938 170.2334375 -79.94921875 170.841875 -80.1484375 171.46875 C-87.23398186 195.32107756 -86.19343038 221.43226074 -74.9296875 243.87890625 C-73.22984385 246.86316091 -71.44025981 249.74980649 -69.5625 252.625 C-68.99402344 253.5221875 -68.42554688 254.419375 -67.83984375 255.34375 C-64.58341509 260.26919107 -61.18594678 264.15331843 -56.62109375 267.890625 C-53.62826174 270.41210017 -50.94797026 273.21529164 -48.2265625 276.0234375 C-46.63827267 277.71128724 -46.63827267 277.71128724 -44.5625 278.625 C-45.85481165 275.12389038 -47.45555159 271.91962955 -49.27856445 268.66577148 C-65.5948585 239.41972943 -68.46132345 207.31145767 -59.61328125 175.23730469 C-53.22297167 153.16706883 -42.03476266 132.86687447 -30.6875 113 C-21.23124731 96.38935935 -13.18185192 78.25631517 -13.25 58.875 C-13.23388672 57.94300781 -13.21777344 57.01101562 -13.20117188 56.05078125 C-13.20020508 54.70306641 -13.20020508 54.70306641 -13.19921875 53.328125 C-13.19623779 52.52020508 -13.19325684 51.71228516 -13.19018555 50.87988281 C-13.65283056 48.07792256 -14.65246355 46.69717926 -16.5625 44.625 C-18.65382577 43.93065096 -18.65382577 43.93065096 -20.9375 43.875 C-21.73414063 43.81441406 -22.53078125 43.75382812 -23.3515625 43.69140625 C-25.65388853 43.58613067 -25.65388853 43.58613067 -28.3125 43.8125 C-30.5625 43.625 -30.5625 43.625 -33.375 42.3125 C-36.37500355 38.62678136 -36.20498451 35.83895381 -35.98828125 31.1953125 C-35.5625 28.625 -35.5625 28.625 -33.8125 26 C-29.35784598 23.27771143 -25.27091678 23.58626893 -20.1953125 23.78515625 C-17.06557225 23.59477146 -14.49029317 22.71331962 -11.5625 21.625 C-11.54832031 20.52800781 -11.53414063 19.43101562 -11.51953125 18.30078125 C-11.47261292 16.84631302 -11.42436562 15.39188723 -11.375 13.9375 C-11.36629883 12.8556543 -11.36629883 12.8556543 -11.35742188 11.75195312 C-11.19209007 7.72887927 -10.82560567 5.98093905 -8.359375 2.64453125 C-5.25196972 0.40077632 -3.78757344 -0.05267835 0 0 Z " fill="#FCCA45" transform="translate(512.5625,198.375)"/>
<path d="M0 0 C0.33 0 0.66 0 1 0 C1.33474427 5.94417766 1.65590751 11.88887235 1.96435547 17.83447266 C2.07127332 19.85811228 2.18193822 21.88155747 2.29638672 23.90478516 C2.45999591 26.80849267 2.61023499 29.71262667 2.7578125 32.6171875 C2.81188263 33.52556366 2.86595276 34.43393982 2.92166138 35.36984253 C2.96185394 36.21056305 3.00204651 37.05128357 3.04345703 37.91748047 C3.08342804 38.65916473 3.12339905 39.400849 3.1645813 40.16500854 C3 42 3 42 1 44 C-0.98 40.37 -2.96 36.74 -5 33 C-4.01 33 -3.02 33 -2 33 C-1.67 33.66 -1.34 34.32 -1 35 C-0.67 23.45 -0.34 11.9 0 0 Z " fill="#FCD34D" transform="translate(449,611)"/>
<path d="M0 0 C1.89551022 -0.05441656 3.7914792 -0.09298035 5.6875 -0.125 C6.74324219 -0.14820313 7.79898437 -0.17140625 8.88671875 -0.1953125 C12.02251859 0.00141271 14.17645373 0.66942346 17 2 C17 2.99 17 3.98 17 5 C14.79173622 5.02722517 12.58337362 5.04649729 10.375 5.0625 C9.14523437 5.07410156 7.91546875 5.08570313 6.6484375 5.09765625 C3.32276209 5.00863924 0.25952412 4.63686087 -3 4 C-2.01 3.34 -1.02 2.68 0 2 C0 1.34 0 0.68 0 0 Z " fill="#FED64B" transform="translate(467,738)"/>
<path d="M0 0 C0.66 0.33 1.32 0.66 2 1 C-4.05154427 9.91134579 -11.72273318 18.42321601 -21 24 C-21.66 24 -22.32 24 -23 24 C-23 23.34 -23 22.68 -23 22 C-21.56640625 20.7734375 -21.56640625 20.7734375 -19.5625 19.375 C-11.88597671 13.77725204 -5.35235177 7.89209516 0 0 Z " fill="#FED34D" transform="translate(455,687)"/>
<path d="M0 0 C3.7907412 0.59121652 5.85687947 2.29913993 8.75 4.75 C11.936148 7.38779019 15.06898433 9.76163838 18.625 11.875 C19.73875 12.57625 20.8525 13.2775 22 14 C22 14.66 22 15.32 22 16 C13.58799786 12.86207276 6.35550173 7.28623195 0 1 C0 0.67 0 0.34 0 0 Z " fill="#FED24D" transform="translate(577,699)"/>
<path d="M0 0 C0.66 0 1.32 0 2 0 C2.34780518 0.78648926 2.34780518 0.78648926 2.70263672 1.58886719 C3.75910537 3.97634907 4.81703813 6.36317945 5.875 8.75 C6.23980469 9.575 6.60460937 10.4 6.98046875 11.25 C7.33496094 12.04921875 7.68945312 12.8484375 8.0546875 13.671875 C8.37937012 14.4050293 8.70405273 15.13818359 9.03857422 15.89355469 C9.96694541 18.02212793 9.96694541 18.02212793 11.18408203 20.02050781 C12.18015932 22.43708312 11.86349555 23.58221247 11 26 C2.04255319 8.85106383 2.04255319 8.85106383 0 0 Z " fill="#FDD34D" transform="translate(528,286)"/>
<path d="M0 0 C3.0381839 1.32564953 4.78945198 2.62904425 6.796875 5.2578125 C7.28027344 5.88300781 7.76367188 6.50820313 8.26171875 7.15234375 C8.75285156 7.80332031 9.24398438 8.45429687 9.75 9.125 C10.50990234 10.11306641 10.50990234 10.11306641 11.28515625 11.12109375 C12.53030858 12.74214112 13.76608569 14.37038213 15 16 C12 16 12 16 10.55786133 14.63891602 C10.0708374 14.01686279 9.58381348 13.39480957 9.08203125 12.75390625 C8.55029297 12.08166016 8.01855469 11.40941406 7.47070312 10.71679688 C6.92349609 10.00587891 6.37628906 9.29496094 5.8125 8.5625 C5.25369141 7.85544922 4.69488281 7.14839844 4.11914062 6.41992188 C0 1.16411973 0 1.16411973 0 0 Z " fill="#FED74D" transform="translate(417,607)"/>
<path d="M0 0 C0.33 0.99 0.66 1.98 1 3 C0.01196289 4.80932617 0.01196289 4.80932617 -1.52734375 6.79296875 C-2.07197266 7.50517578 -2.61660156 8.21738281 -3.17773438 8.95117188 C-3.75845703 9.68916016 -4.33917969 10.42714844 -4.9375 11.1875 C-5.51435547 11.93708984 -6.09121094 12.68667969 -6.68554688 13.45898438 C-8.11466503 15.31329471 -9.55296004 17.15966362 -11 19 C-11.66 18.67 -12.32 18.34 -13 18 C-12.67 17.34 -12.34 16.68 -12 16 C-11.34 16 -10.68 16 -10 16 C-9.75507812 15.29488281 -9.51015625 14.58976563 -9.2578125 13.86328125 C-7.82532472 10.60236963 -6.00478131 8.03865885 -3.875 5.1875 C-3.15054688 4.21167969 -2.42609375 3.23585938 -1.6796875 2.23046875 C-0.84824219 1.12638672 -0.84824219 1.12638672 0 0 Z " fill="#FED34C" transform="translate(609,600)"/>
<path d="M0 0 C4.25546795 1.51980998 5.6698437 4.25762776 8 8 C8.90777261 9.29793276 9.82446188 10.58967524 10.75 11.875 C11.86375 13.421875 11.86375 13.421875 13 15 C12.01 15 11.02 15 10 15 C8.31622244 13.09467276 6.84668066 11.24547925 5.375 9.1875 C4.96765625 8.64029297 4.5603125 8.09308594 4.140625 7.52929688 C2.31347477 5.03360327 0.98425534 2.95276602 0 0 Z " fill="#FDD44E" transform="translate(404,589)"/>
<path d="M0 0 C0.66 0 1.32 0 2 0 C1.54705135 1.75140143 1.08741252 3.50107344 0.625 5.25 C0.36976563 6.22453125 0.11453125 7.1990625 -0.1484375 8.203125 C-0.89598509 10.65837303 -1.77123817 12.75617405 -3 15 C-3.99 14.01 -4.98 13.02 -6 12 C-4 8 -2 4 0 0 Z " fill="#F2C445" transform="translate(431,368)"/>
<path d="M0 0 C0.66 0 1.32 0 2 0 C0.6413032 3.48126921 -0.81879744 6.88148501 -2.4375 10.25 C-3.05431641 11.55710937 -3.05431641 11.55710937 -3.68359375 12.890625 C-5 15 -5 15 -8 16 C-6.57250019 12.20950293 -4.83763458 8.72877544 -2.875 5.1875 C-2.33617187 4.21167969 -1.79734375 3.23585938 -1.2421875 2.23046875 C-0.83226562 1.49441406 -0.42234375 0.75835938 0 0 Z " fill="#FDD24F" transform="translate(563,568)"/>
<path d="M0 0 C0.66 0 1.32 0 2 0 C2.29530838 6.49678438 1.17293889 12.6221448 0 19 C-0.33 19 -0.66 19 -1 19 C-1.0272616 16.95840905 -1.04651345 14.91671037 -1.0625 12.875 C-1.07410156 11.73804688 -1.08570313 10.60109375 -1.09765625 9.4296875 C-1.005327 6.1870844 -0.61389906 3.18067388 0 0 Z " fill="#FED84C" transform="translate(426,388)"/>
<path d="M0 0 C1 2 1 2 0.22265625 4.6015625 C-0.16019531 5.59929688 -0.54304687 6.59703125 -0.9375 7.625 C-1.50791016 9.12933594 -1.50791016 9.12933594 -2.08984375 10.6640625 C-2.39019531 11.43492187 -2.69054687 12.20578125 -3 13 C-3.66 12.67 -4.32 12.34 -5 12 C-4.52389341 7.00088076 -2.96837781 4.02167317 0 0 Z " fill="#FCD551" transform="translate(573,559)"/>
<path d="M0 0 C0.99 0 1.98 0 3 0 C3 5.28 3 10.56 3 16 C2.67 16 2.34 16 2 16 C1.34 10.72 0.68 5.44 0 0 Z " fill="#F1C33B" transform="translate(601,394)"/>
<path d="M0 0 C3.39192363 0.59283621 5.2107757 1.76743189 7.75 4.0625 C8.67039062 4.88427734 8.67039062 4.88427734 9.609375 5.72265625 C10.29773438 6.35494141 10.29773438 6.35494141 11 7 C10.67 7.66 10.34 8.32 10 9 C8.33043913 7.69118353 6.66441696 6.37785174 5 5.0625 C4.071875 4.33160156 3.14375 3.60070312 2.1875 2.84765625 C1.465625 2.23792969 0.74375 1.62820313 0 1 C0 0.67 0 0.34 0 0 Z " fill="#FED04E" transform="translate(458,471)"/>
<path d="M0 0 C3.73274596 1.44493392 3.73274596 1.44493392 4.8125 3.6875 C5.07224656 6.89104088 4.54609881 9.84476244 4 13 C3.67 13 3.34 13 3 13 C2.92652344 12.09507812 2.92652344 12.09507812 2.8515625 11.171875 C2.77679687 10.37265625 2.70203125 9.5734375 2.625 8.75 C2.55539062 7.96109375 2.48578125 7.1721875 2.4140625 6.359375 C1.98492887 3.914123 1.21399362 2.15163097 0 0 Z " fill="#FDD34F" transform="translate(542,223)"/>
<path d="M0 0 C3.33523252 1.38009621 5.18607951 2.84950652 7 6 C6.67 6.99 6.34 7.98 6 9 C4.99712471 7.68969568 3.99777175 6.37669473 3 5.0625 C2.443125 4.33160156 1.88625 3.60070312 1.3125 2.84765625 C0 1 0 1 0 0 Z " fill="#FED44F" transform="translate(440,450)"/>
<path d="M0 0 C0.99 0 1.98 0 3 0 C3 2.31 3 4.62 3 7 C2.01 7 1.02 7 0 7 C-1.125 2.25 -1.125 2.25 0 0 Z " fill="#F3C847" transform="translate(575,653)"/>
<path d="M0 0 C0.99 0.33 1.98 0.66 3 1 C4.6875 4.5625 4.6875 4.5625 6 8 C5.01 8.495 5.01 8.495 4 9 C3.3309224 7.68872739 2.66480194 6.3759455 2 5.0625 C1.62875 4.33160156 1.2575 3.60070312 0.875 2.84765625 C0 1 0 1 0 0 Z " fill="#FDD150" transform="translate(544,319)"/>
<path d="M0 0 C0.66 0 1.32 0 2 0 C1.34 2.97 0.68 5.94 0 9 C-0.99 9 -1.98 9 -3 9 C-2 6 -1 3 0 0 Z " fill="#EFCC4D" transform="translate(431,368)"/>
</svg>
